<svg xmlns="http://www.w3.org/2000/svg" width="612" height="612" viewBox="0 90 612 612"><path d="M0 90h612v612H0z"/><path fill="#FFF" d="M331.043 396.002c0 61.31-49.364 111.011-110.254 111.011s-110.258-49.701-110.258-111.011 49.364-111.015 110.258-111.015 110.254 49.705 110.254 111.015M451.996 396.002c0 57.71-24.682 104.512-55.129 104.512s-55.129-46.802-55.129-104.512 24.678-104.512 55.125-104.512 55.129 46.787 55.129 104.512M501.469 396.002c0 51.694-8.679 93.626-19.389 93.626s-19.385-41.921-19.385-93.626 8.679-93.626 19.385-93.626 19.389 41.917 19.389 93.626"/></svg>