<svg xmlns="http://www.w3.org/2000/svg" width="135.469" height="129.412" viewBox="0 331.294 135.469 129.412"><path fill="#32383D" d="M123.165 460.706h-21.93l1.53-18.488H91.991l-1.53 18.488H45.007l-1.53-18.488H32.704l1.53 18.488h-21.93L0 380.573l30.791-49.279h73.886l30.791 49.279-12.303 80.133zM98.494 355.965H78.731l1.339 9.244H55.399l1.339-9.244H36.975l-12.368 24.607 6.184 49.279h73.886l6.184-49.279-12.367-24.607zM87.72 413.531c-1.721 0-3.06-5.1-3.06-11.475s1.402-11.475 3.06-11.475c1.721 0 3.06 5.1 3.06 11.475s-1.339 11.475-3.06 11.475zm-38.824.957c-1.721 0-3.06-5.1-3.06-11.475s1.402-11.475 3.06-11.475c1.721 0 3.06 5.1 3.06 11.475s-1.402 11.475-3.06 11.475z"/></svg>