<svg xmlns="http://www.w3.org/2000/svg" width="464.204" height="155.833" viewBox="6.696 317.517 464.204 155.833"><path fill="#25262C" d="M209.95 359.45c8.783 0 15.3 3.117 19.267 9.35 4.25 6.233 6.233 15.3 6.233 26.633 0 7.083-1.133 13.033-3.117 18.7-2.267 5.383-5.383 9.917-9.35 13.033-3.967 3.117-8.783 4.817-14.45 4.817-7.083 0-12.75-2.55-16.717-7.367v31.45l-18.133 1.983v-96.617h16.15l.85 7.933c2.55-3.4 5.667-5.95 9.067-7.65 3.117-1.415 6.517-2.265 10.2-2.265zm-6.8 58.65c8.783 0 13.317-7.367 13.317-22.383 0-8.217-1.133-14.167-3.117-17.567-1.983-3.4-5.1-5.1-9.067-5.1-2.267 0-4.817.85-6.8 2.267-2.267 1.7-3.967 3.683-5.667 6.233v29.75c2.834 4.533 6.517 6.8 11.334 6.8zM279.65 359.45c1.983 0 4.25.283 6.8 1.133l-3.117 17.567c-2.267-.567-4.533-.85-5.95-.85-3.967 0-7.083 1.417-9.35 4.25-2.267 2.833-3.967 7.083-5.383 13.033v35.133h-18.133v-68.283h15.867l1.7 13.317c1.7-4.817 3.967-8.5 7.083-11.333 2.833-2.55 6.516-3.967 10.483-3.967zM349.067 394.017c0 .85 0 3.117-.283 7.083h-42.5c.567 6.233 2.267 10.483 5.1 13.033 2.833 2.55 6.517 3.967 11.333 3.967 2.833 0 5.667-.567 8.217-1.417 2.55-.85 5.383-2.55 8.5-4.533l7.65 10.2c-7.65 6.233-16.15 9.35-25.783 9.35-10.767 0-18.983-3.117-24.65-9.633-5.667-6.517-8.5-15.017-8.5-26.067 0-7.083 1.133-13.317 3.683-18.7 2.55-5.667 5.95-9.917 10.767-13.033 4.817-3.117 10.2-4.817 16.717-4.817 9.633 0 17.283 3.117 22.667 9.067 4.248 6.233 7.082 14.45 7.082 25.5zm-18.134-5.1c0-11.333-3.967-17-12.183-17-3.683 0-6.8 1.417-8.783 4.25-1.983 2.833-3.4 7.367-3.967 13.6h24.933v-.85zM382.217 359.45c9.633 0 17.85 2.833 24.65 8.217l-7.083 10.483c-5.667-3.683-11.333-5.383-17-5.383-3.117 0-5.383.567-7.083 1.7-1.7 1.133-2.55 2.55-2.55 4.533 0 1.417.283 2.55 1.133 3.4.85.85 1.983 1.983 4.25 2.833 1.983.85 5.1 1.983 9.067 3.117 7.083 1.983 12.467 4.533 16.15 7.933 3.4 3.4 5.383 7.933 5.383 13.6 0 4.533-1.417 8.5-3.967 11.9-2.55 3.4-6.233 5.95-10.483 7.65-4.533 1.7-9.35 2.55-15.017 2.55s-11.05-.85-15.583-2.55c-4.817-1.7-8.783-4.25-12.183-7.367l9.067-9.917c5.667 4.533 11.9 6.8 18.133 6.8 3.4 0 6.233-.567 8.217-1.983s3.117-3.117 3.117-5.383c0-1.7-.283-3.117-1.133-4.25-.85-1.133-2.267-1.983-4.25-2.833s-5.383-1.983-9.633-3.117c-6.8-1.983-11.9-4.533-15.3-7.933-3.4-3.4-4.817-7.65-4.817-13.033 0-3.967 1.133-7.367 3.4-10.483s5.383-5.383 9.35-7.367c3.965-2.267 8.781-3.117 14.165-3.117zM443.983 359.45c9.633 0 17.85 2.833 24.65 8.217l-7.083 10.483c-5.667-3.683-11.333-5.383-17-5.383-3.117 0-5.383.567-7.083 1.7s-2.55 2.55-2.55 4.533c0 1.417.283 2.55 1.133 3.4.85.85 1.983 1.983 4.25 2.833 1.983.85 5.1 1.983 9.067 3.117 7.083 1.983 12.467 4.533 16.15 7.933 3.4 3.4 5.383 7.933 5.383 13.6 0 4.533-1.417 8.5-3.967 11.9s-6.233 5.95-10.483 7.65c-4.533 1.7-9.35 2.55-15.017 2.55s-11.05-.85-15.583-2.55c-4.817-1.7-8.783-4.25-12.183-7.367l9.067-9.917c5.667 4.533 11.9 6.8 18.133 6.8 3.4 0 6.233-.567 8.217-1.983 1.983-1.417 3.117-3.117 3.117-5.383 0-1.7-.283-3.117-1.133-4.25-.85-1.133-2.267-1.983-4.25-2.833-1.983-.85-5.383-1.983-9.633-3.117-6.8-1.983-11.9-4.533-15.3-7.933s-4.817-7.65-4.817-13.033c0-3.967 1.133-7.367 3.4-10.483 2.267-3.117 5.383-5.383 9.35-7.367 3.965-2.267 8.782-3.117 14.165-3.117zM84.433 317.517c-43.067 0-77.917 34.85-77.917 77.917s34.85 77.917 77.917 77.917 77.917-34.85 77.917-77.917-34.85-77.917-77.917-77.917zm-26.35 113.9c-6.8 0-12.467-1.417-17.567-4.25-4.817-2.833-8.783-7.083-11.333-12.467-2.55-5.383-3.967-11.617-3.967-18.983 0-7.083 1.417-13.6 3.967-18.983 2.55-5.667 6.517-9.917 11.333-13.033 4.817-2.833 10.483-4.25 17-4.25 4.533 0 8.783.567 12.183 1.983 3.683 1.417 7.083 3.4 10.483 6.233l-7.933 10.767c-2.267-1.7-4.533-2.833-6.517-3.683s-4.533-1.133-6.8-1.133c-9.633 0-14.45 7.367-14.45 22.383 0 7.65 1.133 13.033 3.683 16.15 2.55 3.4 5.95 4.817 10.767 4.817 2.267 0 4.533-.283 6.517-1.133 1.983-.85 4.25-1.983 7.083-3.683l7.933 11.333c-6.515 5.382-13.882 7.932-22.382 7.932zm67.717-1.7c-2.833 8.783-7.083 15.3-13.033 20.117s-13.883 7.367-23.8 8.217l-1.983-13.033c6.517-.85 11.333-2.267 14.45-4.533 1.417-1.133 3.4-3.683 3.4-3.683l-23.517-75.367h19.55l13.6 56.383 14.45-56.383H147.9l-22.1 68.282z"/></svg>