<svg xmlns="http://www.w3.org/2000/svg" width="539.086" height="612" viewBox="35.859 90 539.086 612"><path fill="#E34F26" d="M84.867 639.844L35.859 90h539.086l-49.008 549.844L304.805 702"/><path fill="#EF652A" d="M306 654.188l178.102-49.008 41.836-470.953H306"/><path fill="#EBEBEB" d="M306 338.625h-89.648l-5.977-69.328H306v-66.938H136.266l1.195 17.93 16.734 186.469H306v-68.133zm0 175.711h-1.195l-75.305-20.32-4.781-53.789h-66.937l8.367 106.383 138.656 38.25H306v-70.524z"/><path fill="#FFF" d="M304.805 338.625v68.133h83.672l-8.367 87.258-75.305 20.32v70.523l138.656-38.25 1.195-11.953 15.539-178.102 2.391-17.93H304.805zm0-136.266v66.938h163.758l1.195-14.344 3.586-34.664 1.195-17.93H304.805z"/></svg>