<svg xmlns="http://www.w3.org/2000/svg" width="300" height="300" viewBox="-22 -8.5 300 300"><path fill="#99425B" d="M-22-8.5h300v300H-22z"/><path fill="#99425B" d="M226.413 139.465c0-12.774-10.355-23.129-23.129-23.129-.822 0-1.632.044-2.431.127l31.768-93.696H97.618l31.723 93.615a23.35 23.35 0 00-1.405-.047c-12.774 0-23.129 10.355-23.129 23.129 0 10.325 6.767 19.067 16.107 22.041-4.933 8.545-11.14 16.24-18.187 22.888-9.583 9.04-20.55 15.895-32.411 20.119-14.122-7.255-20.791-23.389-14.774-37.535.679-1.597 1.373-3.217 2.036-4.829 10.23-2.388 17.854-11.56 17.854-22.518 0-12.774-10.355-23.129-23.129-23.129-12.775 0-23.13 10.355-23.13 23.129 0 7.834 3.898 14.752 9.855 18.936-5.725 13.035-14.14 26.676-16.762 42.485-3.142 18.948-.01 39.061 16.378 50.419 38.166 26.452 79.594-16.398 123.275-27.17 15.83-3.904 33.207-3.275 47.154-11.353 10.474-6.066 17.379-16.119 19.339-27.406 1.935-11.15-.887-22.251-7.377-31.253a23.026 23.026 0 005.378-14.823zm-75.35.081l.003-.082c0-8.388-4.467-15.734-11.15-19.789l25.249-51.057 25.293 51.598c-6.211 4.147-10.304 11.218-10.304 19.247 0 .169.01.335.013.503l-29.104-.42z"/><path fill="#FFF" d="M232.062 139.465c0-14.049-10.122-25.772-23.456-28.276l31.895-94.07H89.738l31.943 94.261c-12.87 2.864-22.524 14.366-22.524 28.085 0 10.303 5.445 19.354 13.605 24.439-3.925 5.847-8.58 11.35-13.914 16.382-8.459 7.98-17.883 14.033-28.043 18.014-10.233-6.428-14.559-18.55-10.066-29.111l.352-.826.66-1.554c11.239-3.919 19.33-14.618 19.33-27.178 0-15.869-12.91-28.778-28.779-28.778s-28.778 12.909-28.778 28.778c0 8.009 3.292 15.262 8.59 20.485a500.52 500.52 0 01-3.008 6.261c-4.845 9.95-10.335 21.228-12.412 33.752-4.125 24.872 2.528 44.755 18.732 55.985 9.833 6.815 19.818 9.496 29.867 9.495 18.922-.001 38.062-9.506 56.783-18.805 13.483-6.696 27.425-13.621 41.196-17.017 5.124-1.264 10.397-2.024 15.979-2.829 11.069-1.597 22.516-3.248 32.655-9.12 11.752-6.807 19.797-18.226 22.072-31.328 1.953-11.247-.398-22.511-6.13-32.065a28.63 28.63 0 004.214-14.98zm-11.298 0c0 9.639-7.842 17.481-17.481 17.481-9.638 0-17.481-7.842-17.481-17.481 0-9.639 7.842-17.481 17.481-17.481 9.64 0 17.481 7.842 17.481 17.481zm3.976-111.049l-28.165 83.068a28.468 28.468 0 00-3.567 1.106l-27.823-56.758-27.904 56.422a28.36 28.36 0 00-3.72-1.011l-28.068-82.827H224.74zm-96.805 93.568c9.639 0 17.481 7.842 17.481 17.481 0 9.639-7.842 17.481-17.481 17.481-9.638 0-17.481-7.842-17.481-17.481 0-9.639 7.843-17.481 17.481-17.481zm-75.633.166c9.64 0 17.481 7.842 17.481 17.481s-7.842 17.481-17.481 17.481c-9.638 0-17.481-7.842-17.481-17.481s7.842-17.481 17.481-17.481zm170.543 62.427c-1.701 9.798-7.753 18.358-16.603 23.484-8.25 4.779-18.137 6.205-28.605 7.714-5.607.809-11.406 1.645-17.071 3.043-14.978 3.693-29.486 10.899-43.516 17.868-28.077 13.946-52.325 25.988-75.188 10.143-16.748-11.607-15.974-33.083-14.023-44.851 1.808-10.903 6.696-20.944 11.424-30.655.818-1.68 1.613-3.327 2.392-4.962a28.516 28.516 0 007.437 1.867c-4.812 15.883 2.756 33.151 18.641 41.312l2.174 1.117 2.303-.82c12.558-4.472 24.129-11.649 34.392-21.332 6.635-6.259 12.336-13.184 17.024-20.583 1.406.212 2.845.323 4.309.323 15.869 0 28.779-12.909 28.779-28.779 0-8.534-3.738-16.209-9.658-21.484l18.086-36.573 18.27 37.27c-5.482 5.244-8.907 12.62-8.907 20.787 0 15.87 12.909 28.779 28.778 28.779a28.611 28.611 0 0016.411-5.157c3.234 6.619 4.439 14.069 3.151 21.489z"/></svg>