<svg xmlns="http://www.w3.org/2000/svg" width="612" height="612" viewBox="0 92.506 612 612"><path fill="#00C58E" d="M348.719 294.18l-20.944 36.875-71.627-126.144-219.881 387.19h148.875c0 20.366 16.237 36.875 36.267 36.875H36.267c-12.956 0-24.926-7.032-31.403-18.441s-6.476-25.464.002-36.872l219.882-387.189c6.478-11.41 18.451-18.439 31.408-18.439s24.93 7.029 31.408 18.439l61.155 107.706z"/><path fill="#2F495E" d="M507.446 573.663L369.663 331.055l-20.944-36.875-20.944 36.875-137.768 242.608c-6.478 11.408-6.478 25.463-.002 36.872 6.477 11.409 18.447 18.441 31.403 18.441H476c12.958 0 24.934-7.024 31.414-18.434s6.481-25.468.002-36.879h.03zm-286.038 18.438l127.311-224.17L476 592.101H221.408z"/><path fill="#108775" d="M605.956 610.538c-6.477 11.407-18.447 18.438-31.401 18.438H476c20.03 0 36.267-16.51 36.267-36.875h62.212L397.951 281.228l-28.288 49.828-20.944-36.875 17.831-31.39c6.478-11.41 18.451-18.439 31.408-18.439s24.93 7.029 31.408 18.439l176.588 310.873c6.48 11.409 6.48 25.465.002 36.874z"/></svg>