<svg xmlns="http://www.w3.org/2000/svg" width="405.314" height="407.116" viewBox="103.343 165.421 405.314 407.116"><path fill="#77AF37" d="M435.701 206.133c-17.88 0-32.425 14.545-32.425 32.425 0 7.252 2.478 13.887 6.517 19.294l-52.883 57.382c-2.473-.606-5.018-1.017-7.675-1.017-6.638 0-12.804 2.019-17.949 5.455l-37.71-28.275c.957-3.054 1.618-6.239 1.618-9.605 0-17.88-14.545-32.425-32.425-32.425s-32.425 14.545-32.425 32.425c0 3.366.661 6.551 1.618 9.605l-37.71 28.275c-5.145-3.436-11.311-5.455-17.949-5.455-17.88 0-32.425 14.545-32.425 32.425s14.545 32.425 32.425 32.425 32.425-14.545 32.425-32.425c0-3.366-.661-6.551-1.618-9.605l37.71-28.275c5.144 3.436 11.311 5.455 17.949 5.455s12.804-2.019 17.949-5.455l37.71 28.275c-.957 3.054-1.618 6.239-1.618 9.605 0 17.88 14.545 32.425 32.425 32.425s32.425-14.545 32.425-32.425c0-7.252-2.478-13.887-6.517-19.294l52.883-57.382c2.473.606 5.018 1.017 7.675 1.017 17.88 0 32.425-14.545 32.425-32.425 0-17.88-14.545-32.425-32.425-32.425z"/><path fill="#59ABFF" d="M284.383 379.067H241.15a10.802 10.802 0 00-10.808 10.808v141.95h64.85v-141.95a10.803 10.803 0 00-10.809-10.808z"/><path fill="#FFBE40" d="M370.85 422.3h-43.234a10.802 10.802 0 00-10.808 10.808v98.717h64.85v-98.717c.001-5.973-4.834-10.808-10.808-10.808z"/><path fill="#443D66" d="M457.317 335.833h-43.234a10.802 10.802 0 00-10.808 10.808v185.184h64.85V346.642a10.801 10.801 0 00-10.808-10.809z"/><path fill="#E25B54" d="M197.916 443.917h-43.234a10.802 10.802 0 00-10.808 10.808v77.1h64.85v-77.1a10.801 10.801 0 00-10.808-10.808z"/></svg>