<svg xmlns="http://www.w3.org/2000/svg" width="390" height="512" viewBox="61 0 390 512"><path fill="#E9E9E0" d="M324.193 41.577H102.319c-6.177 0-11.185 5.007-11.185 14.724v405.752c0 2.638 5.007 7.645 11.185 7.645h306.367c6.177 0 11.185-5.007 11.185-7.645V140.794c0-5.321-.711-7.033-1.965-8.295l-88.958-88.958a6.758 6.758 0 00-4.755-1.964z"/><path fill="#D9D7CA" d="M328.13 42.731v90.586h90.586z"/><path fill="#E57E25" d="M408.686 469.699H102.319c-6.177 0-11.185-5.007-11.185-11.185V339.733H419.87v118.781c.001 6.177-5.007 11.185-11.184 11.185z"/><path fill="#FFF" d="M205.496 425.648c0 2.783-.573 5.489-1.728 8.104s-2.767 4.916-4.862 6.896c-2.095 1.98-4.663 3.57-7.737 4.755s-6.544 1.774-10.451 1.774c-1.674 0-3.394-.092-5.176-.26a41.94 41.94 0 01-5.382-.887 27.62 27.62 0 01-5.176-1.728c-1.636-.734-3.043-1.621-4.235-2.668l2.194-8.991c.979.558 2.209 1.101 3.708 1.621a80.826 80.826 0 004.648 1.46c1.605.451 3.203.818 4.809 1.101s3.096.42 4.495.42c4.251 0 7.507-.994 9.77-2.982 2.263-1.988 3.394-4.931 3.394-8.83 0-2.37-.795-4.388-2.401-6.063-1.605-1.674-3.608-3.188-6.009-4.549-2.401-1.361-5-2.714-7.79-4.075-2.79-1.361-5.397-2.966-7.836-4.809s-4.457-4.021-6.063-6.529c-1.605-2.508-2.401-5.642-2.401-9.403 0-3.41.627-6.445 1.881-9.09 1.254-2.645 2.943-4.9 5.069-6.743 2.125-1.842 4.602-3.257 7.423-4.235 2.821-.979 5.803-1.46 8.937-1.46 3.203 0 6.445.298 9.717.887 3.272.589 5.917 1.552 7.943 2.875-.42.902-.902 1.896-1.46 2.982s-1.086 2.087-1.567 3.027c-.482.94-.902 1.728-1.254 2.355s-.558.979-.627 1.047c-.42-.206-.887-.482-1.414-.833-.528-.352-1.269-.696-2.248-1.047s-2.263-.589-3.868-.734c-1.605-.145-3.662-.107-6.17.107a10.789 10.789 0 00-3.975 1.2c-1.261.665-2.37 1.475-3.349 2.454s-1.743 2.072-2.301 3.295c-.558 1.223-.833 2.393-.833 3.501 0 2.783.795 5.03 2.401 6.743 1.605 1.712 3.593 3.203 5.955 4.495a96.018 96.018 0 007.737 3.761 41.94 41.94 0 017.79 4.442c2.408 1.735 4.404 3.922 6.009 6.529 1.608 2.608 2.433 5.972 2.433 10.085zM239.15 447.184l-23.937-77.452h14.319l17.874 66.474 18.921-66.474h14.212l-25.083 77.452H239.15zM352.35 407.048v29.785c-1.605 2.026-3.394 3.67-5.382 4.962a32.905 32.905 0 01-13.065 4.969c-2.339.352-4.648.52-6.949.52-4.602 0-8.83-.833-12.698-2.508-3.868-1.674-7.247-4.144-10.137-7.423-2.89-3.28-5.16-7.385-6.796-12.331-1.636-4.946-2.454-10.665-2.454-17.14s.818-12.179 2.454-17.087c1.636-4.908 3.907-9.006 6.796-12.278 2.89-3.272 6.284-5.764 10.191-7.477 3.907-1.712 8.119-2.561 12.645-2.561 4.182 0 8.088.696 11.704 2.087 3.616 1.391 6.858 3.486 9.717 6.269l-8.677 7.737c-1.674-2.026-3.593-3.486-5.749-4.388a17.186 17.186 0 00-6.689-1.361c-2.576 0-5.03.482-7.37 1.46s-4.426 2.63-6.269 4.962-3.295 5.344-4.335 9.044-1.605 8.218-1.674 13.585c.069 5.229.612 9.755 1.621 13.585s2.401 6.965 4.182 9.403c1.781 2.439 3.8 4.251 6.063 5.436s4.648 1.774 7.163 1.774c.772 0 1.789-.053 3.081-.161a37.148 37.148 0 003.868-.52 24.881 24.881 0 003.708-.994c1.185-.421 2.057-1.009 2.615-1.774v-19.021h-13.065v-8.57h25.504v.016z"/><path fill="#C8BDB8" d="M389.291 209.768v-45.87h-45.87v15.29h-45.87v-30.58H221.1v30.58h-45.87v-15.29h-45.87v45.87h45.87v-15.29h27.125c-34.907 20.152-57.705 58.01-57.705 99.385 0 4.22 3.417 7.645 7.645 7.645s7.645-3.425 7.645-7.645c0-40.106 24.686-76.443 61.16-91.702v22.897h76.45v-22.897c36.474 15.267 61.16 51.604 61.16 91.702 0 4.22 3.417 7.645 7.645 7.645s7.645-3.425 7.645-7.645c0-41.375-22.797-79.233-57.705-99.385h27.125v15.29h45.871zm-229.351-15.29h-15.29v-15.29h15.29v15.29zm122.32 15.29h-45.87V163.898h45.87V209.768zm76.45-30.581H374v15.29h-15.29v-15.29z"/></svg>