<svg xmlns="http://www.w3.org/2000/svg" width="512" height="512"><path fill="#F3F5F9" d="M256 131.242c-68.755 0-124.758 56.004-124.758 124.758S187.245 380.758 256 380.758 380.758 324.755 380.758 256 324.755 131.242 256 131.242z"/><circle fill="#443D66" cx="200.552" cy="256" r="13.862"/><circle fill="#443D66" cx="311.448" cy="256" r="13.862"/><path fill="#443D66" d="M256 242.138c-7.656 0-13.862 6.206-13.862 13.862s6.206 13.862 13.862 13.862c7.764 0 13.862-6.098 13.862-13.862s-6.098-13.862-13.862-13.862z"/><path fill="#77AF37" d="M131.242 256c0-19.686 4.598-38.323 12.766-54.903l-16.827-62.802c-2.013-7.532-9.72-11.734-16.975-9.8L48.08 145.144C31.334 176.486 19.421 216.088 19.421 256c0 45.713 14.153 88.242 36.683 124.371l16.576-61.87c1.941-7.263 9.431-11.81 16.975-9.8l62.833 16.838c-13.408-19.887-21.246-43.82-21.246-69.539z"/><path fill="#FFBE40" d="M293.525 65.993L256 28.468l-7.731-8.655C170.343 22.347 89.828 67.005 48.08 145.143l.001.001 62.124-16.649c7.255-1.933 14.963 2.269 16.975 9.8l16.827 62.802c-.13.264-.251.533-.379.798 19.043-39.363 58.165-67.293 103.959-70.362L256 123.12l37.525-37.524c5.415-5.416 5.415-14.188 0-19.603z"/><path fill="#E25B54" d="M218.476 446.007c-5.415-5.414-5.415-14.187 0-19.602L256 388.88l8.41-8.41c-2.78.188-5.583.287-8.41.287-44.614 0-83.851-23.584-105.909-58.928.78 1.25 1.575 2.489 2.397 3.709L89.655 308.7c-7.545-2.009-15.035 2.538-16.975 9.8l-16.576 61.87C98.273 448.01 173.028 492.579 256 492.579c2.611 0 5.143-.306 7.731-.391L256 483.532l-37.524-37.525z"/><path fill="#FFBE40" d="M463.922 366.854l-62.127 16.652c-7.494 1.981-15.018-2.473-16.975-9.8l-16.836-62.826c-19.181 38.952-58.079 66.539-103.572 69.588L256 388.88l-37.524 37.525c-5.415 5.415-5.415 14.187 0 19.602L256 483.532l7.731 8.655c77.928-2.534 158.443-47.193 200.191-125.333z"/><path fill="#59ABFF" d="M455.894 131.627c0 .001 0 .001 0 0L439.32 193.5a13.879 13.879 0 01-6.457 8.42 13.882 13.882 0 01-10.519 1.381l-62.845-16.843c13.413 19.888 21.259 43.82 21.259 69.542 0 19.687-4.599 38.325-12.767 54.906l16.829 62.799c1.957 7.327 9.482 11.782 16.975 9.8l62.127-16.652c16.599-31.062 28.657-70.658 28.657-110.854 0-45.714-14.155-88.243-36.685-124.372z"/><path fill="#443D66" d="M256 19.421c-2.611 0-5.143.306-7.731.391L256 28.468l37.525 37.525c5.415 5.415 5.415 14.186 0 19.602L256 123.12l-8.41 8.41c2.78-.188 5.583-.287 8.41-.287 43.036 0 81.074 21.943 103.511 55.219l62.833 16.839c3.728.985 7.447.38 10.519-1.381a13.879 13.879 0 006.457-8.42l16.574-61.872C412.802 62.527 337.833 19.421 256 19.421z"/></svg>