<svg xmlns="http://www.w3.org/2000/svg" width="2222.451" height="2500" viewBox="0 0 2222.451 2500"><path fill="none" d="M0 .002h2500v2499.996H0V.002z"/><path fill="#2062AF" d="M2014.079 2257.15l-902.86 243.105-902.874-243.105L0 0h2222.451l-208.372 2257.15z"/><path fill="#3C9CD7" d="M1111.212 182.826V2306.36l2.042.557 730.647-196.745 168.647-1927.346h-901.336z"/><path fill="#FFF" d="M1110.41 747.204l-646.207 269.128 21.43 266.457 624.777-267.133 664.601-284.148 27.555-272.575-692.156 288.271z"/><linearGradient id="a" gradientUnits="userSpaceOnUse" x1="-135.296" y1="80.008" x2="-135.296" y2="-35.375" gradientTransform="translate(1415.318 911.406) scale(4.6418)"><stop offset=".387" stop-color="#d1d3d4" stop-opacity="0"/><stop offset="1" stop-color="#d1d3d4"/></linearGradient><path fill="url(#a)" d="M464.196 1016.332l21.43 266.457 624.777-267.133V747.204l-646.207 269.128z"/><linearGradient id="b" gradientUnits="userSpaceOnUse" x1="8.869" y1="22.459" x2="8.869" y2="-97.476" gradientTransform="translate(1415.318 911.406) scale(4.6418)"><stop offset=".387" stop-color="#d1d3d4" stop-opacity="0"/><stop offset="1" stop-color="#d1d3d4"/></linearGradient><path fill="url(#b)" d="M1802.565 458.94L1110.41 747.204v268.452l664.601-284.148 27.554-272.568z"/><linearGradient id="c" gradientUnits="userSpaceOnUse" x1="-204.689" y1="131.47" x2="72.433" y2="131.47" gradientTransform="translate(1415.318 911.406) scale(4.6418)"><stop offset="0" stop-color="#e8e7e5"/><stop offset="1" stop-color="#fff"/></linearGradient><path fill="url(#c)" d="M465.191 1016.332l21.436 266.457 958.638 3.056-21.443 355.271-315.448 88.808-303.238-76.565-18.374-220.515H505.001l36.755 425.712 569.682 168.442 566.593-165.386 73.509-845.279H465.191z"/><path opacity=".05" d="M1110.41 1016.332H464.203l21.43 266.457 624.777 1.995v-268.452zm0 712.744l-3.062.855-303.198-76.565-18.374-220.515H504.02l36.748 425.712 569.642 168.442v-297.929z"/><linearGradient id="d" gradientUnits="userSpaceOnUse" x1="-217.44" y1="-68.115" x2="83.426" y2="-68.115" gradientTransform="translate(1415.318 911.406) scale(4.6418)"><stop offset="0" stop-color="#e8e7e5"/><stop offset="1" stop-color="#fff"/></linearGradient><path fill="url(#d)" d="M406.005 458.94h1396.56l-27.554 272.575H439.691L406.005 458.94z"/><path opacity=".05" d="M1110.41 458.94H406.005l33.686 272.575h670.719V458.94z"/></svg>