<svg xmlns="http://www.w3.org/2000/svg" width="533.184" height="598.846" viewBox="39.382 96.426 533.184 598.846"><path fill="#E535AB" d="M310.957 115.976l21.994 12.699L87.927 553.056l-21.994-12.698z"/><path fill="#E535AB" d="M60.894 506.466h490.059v25.398H60.894z"/><path fill="#E535AB" d="M83.295 498.728L328.41 640.25l-12.699 21.994L70.596 520.722zM296.224 129.882L541.34 271.404l-12.699 21.994-245.116-141.522z"/><path fill="#E535AB" d="M315.78 129.787l12.698 21.994L83.362 293.303 70.663 271.31z"/><path fill="#E535AB" d="M301.099 115.978l245.024 424.381-21.994 12.699-245.024-424.382zM80.325 254.475h25.398v283.05H80.325z"/><path fill="#E535AB" d="M506.277 254.475h25.398v283.05h-25.398z"/><path fill="#E535AB" d="M513.49 509.195l11.093 19.212-213.185 123.086-11.093-19.212z"/><path fill="#E535AB" d="M565.335 545.787c-14.688 25.551-47.43 34.272-72.981 19.584-25.551-14.688-34.272-47.43-19.584-72.981 14.688-25.551 47.43-34.272 72.981-19.584 25.704 14.841 34.425 47.43 19.584 72.981M139.077 299.61c-14.688 25.551-47.43 34.272-72.981 19.584-25.551-14.688-34.272-47.43-19.584-72.981s47.43-34.272 72.981-19.584c25.551 14.841 34.272 47.43 19.584 72.981M46.665 545.787c-14.688-25.551-5.967-58.14 19.584-72.981 25.551-14.688 58.14-5.967 72.981 19.584 14.688 25.551 5.967 58.14-19.584 72.981-25.704 14.688-58.293 5.967-72.981-19.584M472.923 299.61c-14.688-25.551-5.967-58.14 19.584-72.981 25.551-14.688 58.14-5.967 72.981 19.584 14.688 25.551 5.967 58.14-19.584 72.981-25.551 14.688-58.293 5.967-72.981-19.584M306 695.574c-29.529 0-53.397-23.868-53.397-53.397S276.471 588.78 306 588.78s53.397 23.868 53.397 53.397c0 29.376-23.868 53.397-53.397 53.397M306 203.22c-29.529 0-53.397-23.868-53.397-53.397S276.471 96.426 306 96.426s53.397 23.868 53.397 53.397S335.529 203.22 306 203.22"/></svg>