<svg xmlns="http://www.w3.org/2000/svg" width="512" height="512"><path d="M237.31 393.06c0 10.322 8.368 18.69 18.69 18.69 10.322 0 18.69-8.368 18.69-18.69 0-10.322-8.368-18.69-18.69-18.69-10.322.001-18.69 8.368-18.69 18.69zm24.92 0a6.23 6.23 0 11-12.46 0 6.23 6.23 0 0112.46 0zM100.254 393.06c0 10.322 8.368 18.69 18.69 18.69s18.69-8.368 18.69-18.69c0-10.322-8.368-18.69-18.69-18.69s-18.69 8.368-18.69 18.69zm24.919 0a6.23 6.23 0 11-12.46 0 6.23 6.23 0 0112.46 0z"/><path d="M442.895 336.992h-43.609v-31.149h6.23a6.23 6.23 0 006.23-6.23v-24.919a6.23 6.23 0 00-6.23-6.23h-24.919a6.23 6.23 0 00-6.23 6.23v6.23H274.69v-6.23a6.23 6.23 0 00-6.23-6.23h-6.23v-39.011l76.59-23.561a6.228 6.228 0 004.398-5.956v-99.678a6.234 6.234 0 00-2.529-4.984 10.933 10.933 0 00-1.464-.81l-80.988-31.149a6.29 6.29 0 00-4.473 0l-80.988 31.149c-.508.232-.997.503-1.464.81a6.227 6.227 0 00-2.529 4.984v99.678a6.23 6.23 0 004.398 5.956l76.59 23.561v39.011h-6.23a6.23 6.23 0 00-6.23 6.23v6.23h-99.678v-6.23a6.23 6.23 0 00-6.23-6.23h-24.919a6.23 6.23 0 00-6.23 6.23v24.919a6.23 6.23 0 006.23 6.23h6.23v31.149H69.105a6.23 6.23 0 00-6.23 6.23V442.9a6.23 6.23 0 006.23 6.23h99.678a6.23 6.23 0 006.23-6.23v-99.678a6.23 6.23 0 00-6.23-6.23h-43.609v-31.149h6.23a6.23 6.23 0 006.23-6.23v-6.23h99.678v6.23a6.23 6.23 0 006.23 6.23h6.23v31.149h-43.609a6.23 6.23 0 00-6.23 6.23V442.9a6.23 6.23 0 006.23 6.23h99.678a6.23 6.23 0 006.23-6.23v-99.678a6.23 6.23 0 00-6.23-6.23H262.23v-31.149h6.23a6.23 6.23 0 006.23-6.23v-6.23h99.678v6.23a6.23 6.23 0 006.23 6.23h6.23v31.149h-43.609a6.23 6.23 0 00-6.23 6.23V442.9a6.23 6.23 0 006.23 6.23h99.678a6.23 6.23 0 006.23-6.23v-99.678a6.233 6.233 0 00-6.232-6.23zM330.758 195.331l-68.528 21.088v-86.638l68.528-21.088v86.638zM256 75.78l61.931 23.854L256 118.66l-61.931-19.026L256 75.78zm-74.758 32.913l68.528 21.088v86.638l-68.528-21.088v-86.638zm-18.69 327.976H75.334v-87.218h87.218v87.218zm-37.379-143.286h-12.46v-12.46h12.46v12.46zm174.436 143.286h-87.218v-87.218h87.218v87.218zM262.23 293.383h-12.46v-12.46h12.46v12.46zm124.597-12.46h12.46v12.46h-12.46v-12.46zm49.839 155.746h-87.218v-87.218h87.218v87.218z"/><path d="M374.367 393.06c0 10.322 8.368 18.69 18.69 18.69s18.69-8.368 18.69-18.69c0-10.322-8.368-18.69-18.69-18.69s-18.69 8.368-18.69 18.69zm24.919 0a6.23 6.23 0 11-12.46 0 6.23 6.23 0 0112.46 0zM399.286 417.98h-37.379a6.23 6.23 0 100 12.46h37.379a6.23 6.23 0 100-12.46zM417.976 430.439h6.23a6.23 6.23 0 100-12.46h-6.23a6.23 6.23 0 100 12.46z"/></svg>