<svg xmlns="http://www.w3.org/2000/svg" width="785" height="311.705" viewBox="219.5 240.148 785 311.705"><path fill="#3D3D3D" d="M797.24 498.918l22.678-57.346h65.478l-31.077-86.992 38.866-98.281L1004.5 551.853h-82.091l-19.024-52.935H797.24z"/><path fill="#5A0FC8" d="M727.205 535.702L846.37 240.147h-79.003L685.85 431.141l-57.967-190.993h-60.724l-62.24 190.993-43.893-87.032-39.722 122.376 40.329 69.217h77.749l56.243-171.281 53.625 171.281h77.955z"/><path fill="#3D3D3D" d="M294.491 434.243h48.662c14.74 0 27.866-1.645 39.378-4.935l12.584-38.771 35.172-108.358a86.576 86.576 0 00-9.179-12.048c-18.058-19.989-44.48-29.983-79.265-29.983H219.5v295.554h74.991V434.243zm64.411-126.1c7.054 7.099 10.581 16.599 10.581 28.501 0 11.993-3.102 21.504-9.305 28.535-6.801 7.812-19.323 11.717-37.565 11.717h-28.122v-79.402h28.329c17.001 0 29.029 3.549 36.082 10.649z"/></svg>