<svg xmlns="http://www.w3.org/2000/svg" width="390" height="512" viewBox="61 0 390 512"><path fill="#1E1E1E" d="M324.193 41.577H102.319c-6.177 0-11.185 5.007-11.185 14.724v405.752c0 2.638 5.007 7.645 11.185 7.645h306.367c6.177 0 11.185-5.007 11.185-7.645V140.794c0-5.321-.711-7.033-1.965-8.295l-88.958-88.958a6.758 6.758 0 00-4.755-1.964z"/><path fill="#353535" d="M328.13 42.731v90.586h90.586z"/><path fill="#0DBC79" d="M163.716 171.131l-17.893 17.893 34.254 34.254 46.909-46.909-17.894-17.893-29.015 29.015zM163.716 247.054l-17.893 17.893 34.254 34.254 46.909-46.909-17.894-17.893-29.015 29.015zM163.716 322.977l-17.893 17.893 34.254 34.254 46.909-46.909-17.894-17.893-29.015 29.015z"/><path fill="#FFF" d="M243.346 192.731h126.538v25.308H243.346zM243.346 268.654h126.538v25.308H243.346zM243.346 344.577h126.538v25.308H243.346z"/></svg>