<svg xmlns="http://www.w3.org/2000/svg" width="512" height="445" viewBox="0 33.5 512 445"><path fill="#DFE1F7" d="M457.165 153.264V430.84H54.835V81.159h100.103l98.178 23.425 204.049 48.68z"/><path fill="#373B5B" d="M457.165 81.159v72.106H187.242l-32.304-72.106h302.227z"/><path fill="#FF6E91" d="M390.502 104.733h23.574v23.574h-23.574v-23.574z"/><path fill="#33C1B0" d="M343.354 104.733h23.574v23.574h-23.574v-23.574z"/><path fill="#64C8FF" d="M296.206 104.733h23.574v23.574h-23.574v-23.574z"/><path fill="#334FA8" d="M243.386 322.77c0 12.318-10.021 22.34-22.34 22.34s-22.34-10.021-22.34-22.34v-91.617h-23.574v91.617c0 25.317 20.597 45.914 45.914 45.914s45.914-20.597 45.914-45.914v-91.617h-23.574v91.617zM313.293 231.153v137.53h23.574v-137.53z"/></svg>